<?xml version="1.0" encoding="utf-8"?>
<!-- Generator: Adobe Illustrator 27.1.1, SVG Export Plug-In . SVG Version: 6.00 Build 0)  -->
<svg version="1.1" id="Layer_1" xmlns="http://www.w3.org/2000/svg" xmlns:xlink="http://www.w3.org/1999/xlink" x="0px" y="0px"
	 viewBox="0 0 960 560" style="enable-background:new 0 0 960 560;" xml:space="preserve">
<style type="text/css">
	.st0{fill:#010000;}
	.st1{fill:#E29304;}
	.st2{fill:#E09307;}
	.st3{fill:#FDFDFD;}
	.st4{fill:#C58F29;}
	.st5{fill:#7A4D0C;}
</style>
<circle class="st0" cx="472.6" cy="152.6" r="352.8"/>
<g>
	<path class="st1" d="M523.02,249.9c-8.94,1.06-18.17,1.06-26.76,3.4c-16.58,4.52-33.86,4.21-50.46,8.48
		c-4.55,1.17-9.76,0.96-14.67,1.29c-2.92-0.02-5.84,0.03-8.76-0.07c-2.12-0.08-3.52,0.48-3.39,2.92
		c0.01,10.98,0.35,21.98-0.11,32.95c-0.22,5.32,1.61,6.26,6.48,6.25c79.72-0.14,159.44-0.1,239.16-0.11c2.49,0,4.97-0.16,7.46-0.25
		c0,0-0.03,0.25-0.03,0.25c-0.05,12.58-0.1,25.15-0.15,37.73c-1.99,0.1-3.98,0.29-5.97,0.29c-93.25,0.02-186.51-0.02-279.76,0.15
		c-3.43,0.01-4.89-1.5-6.39-3.81c-2.35-7.94-4.04-16.12-6.39-23.96c-3.2-10.72-6.59-21.44-9.52-32.25
		c-3.44-12.73-7.01-25.43-10.28-38.21c-1.52-5.95-2.71-12.26-5.43-17.97c-0.36-0.36-0.71-0.72-1.07-1.07
		c-1.72-1.53-3.82-0.83-5.73-0.83c-26.74-0.05-53.48-0.01-80.22-0.04c-2.26,0-4.36-0.48-6.62-1.21c-4.78-1.54-6.2-5.89-9.24-8.84
		c-0.11-5.68-0.21-11.37-0.32-17.05c0.25-4.77,3.76-6.84,7.34-8.85c24.8-0.01,49.61-0.03,74.41-0.03
		c69.58,0,139.16,0.01,208.74-0.07c1.86,0,4.49,1.42,5.55-1.67c11.2-3.22,16.03-12.48,15-20.4c-0.99-7.62-5.35-15.54-12.93-16.95
		c-0.18-4.71-3.82-2.83-5.98-2.83c-132.06-0.09-264.12-0.08-396.17-0.08c-1.66,0-3.33,0.06-4.99,0.09l-0.42,0.05
		c0,0-0.36-0.22-0.36-0.22c0-4.11-3.81-4.81-6.12-6.85c0,0,0.03,0.07,0.03,0.06c0.16-8.45-0.43-16.95,2.09-25.21
		c1.32-2.31,3.4-3.49,5.96-3.92c142.82,0,285.65,0,428.47,0c4.16,0,8.32,0.04,12.48-0.07c0.55-0.01,2.18,1.02,1.77-1
		c0.16-0.25,0.26-0.52,0.3-0.82c8.8-2.29,12.71-7.19,14.78-16.71c1.36-6.3-2.97-14.4-9.19-18.44c-1.83-1.19-3.69-2.2-5.76-2.85
		c-0.14-0.31-0.28-0.62-0.42-0.93c0.14-0.26,0.3-0.51,0.4-0.78c0.02-0.06-0.17-0.27-0.26-0.28c-1.66-0.05-3.33-0.09-4.99-0.09
		c-86.93-0.01-173.86,0-260.78-0.04c-2.28,0-4.65,0.59-6.84-0.67c-2.48-1.42-1.69-4.18-2.28-7.06c-0.66,1.8-1,2.72-1.34,3.64
		c-5.46-18.2-10.6-36.49-15.18-54.93c1.51-6.33-1.3-11.92-3.19-17.63c-0.65-1.96-2.86-1.26-4.43-1.26
		c-14.74-0.04-29.49,0-44.23-0.04c-4.15-0.01-8.76,1.1-11.12-3.98c-0.01-10.66-0.01-21.33-0.02-31.99
		c25.96-0.01,51.92-0.02,77.88-0.03c8.35,12.45,16.52,25.04,25.14,37.31c4.48,6.38,7.91,13.48,13.26,19.25
		c1.6,2.7,4.22,1.29,6.28,1.3c131.32,0.08,262.64,0.08,393.96,0.05c1.78,0,3.68,0.52,5.33-0.67c0.56,0,1.12,0,1.68,0
		c0.11,1.61,0.21,3.22,0.32,4.83c-4.02,6.91-5.53,14.8-8.53,22.13c-5.42,13.26-10.03,26.86-14.56,40.45
		c-3.6,10.8-7.83,21.37-11.51,32.14c-3.61,10.56-7.93,20.92-11.57,31.51c-3.69,10.75-7.68,21.4-11.61,32.07
		c-2.89,7.85-5.95,15.64-8.79,23.51c-2.87,7.96-5.68,15.94-8.28,23.99c-0.98,3.03-2.75,3.68-5.71,4.26
		c-13.13,2.57-26.53,3.23-39.65,6.17c-7.1,1.59-14.49,2.51-21.77,3.62c-11.96,1.82-23.94,3.53-35.89,5.38
		c-7.42,1.15-14.98,1.4-22.24,3.55c-0.35-0.51-0.74-1.49-1.03-1.46c-7.81,0.83-15.62,1.73-23.42,2.69
		C522.94,247.37,523.1,248.76,523.02,249.9z"/>
	<path class="st2" d="M122.97,223.94c4.35,20.52,10.91,40.25,19.21,59.56c7.59,17.68,16.53,34.55,26.69,50.8
		c8.31,13.3,17.52,25.97,27.73,37.95c4.34,5.1,9.53,9.41,13.34,14.95c0.33,0.29,0.67,0.58,1,0.87c0,0,0.02,0.04,0.02,0.04
		c1.74,4.49,5.55,7.05,9.15,9.81c8.53,7.63,16.74,15.65,25.68,22.77c9.06,7.22,18.93,13.41,28.26,20.31
		c12.3,9.11,26.18,15.51,39.65,22.4c13.4,6.86,27.49,12.57,42.16,16.75c12.05,3.44,24,7.22,36.21,10.02
		c13.09,3,26.45,4.33,39.77,5.94c5.45,0.66,10.89,0.28,16.29,1c3.78,1.8,7.8,0.83,11.67,0.77c7.37-0.12,14.79,1.04,22.1-0.75
		c2.69-0.08,5.37-0.15,8.06-0.23c4.4,0.02,8.81,0.06,13.21,0.03c1.55-0.01,3.43,0.49,3.88-1.88c10.42-0.18,20.34-3.35,30.5-5.05
		c11.48-1.92,22.39-5.96,33.56-9.05c16.41-4.54,31.84-11.39,47.01-18.86c20.53-10.11,40.03-21.85,58.23-35.88
		c16.25-12.52,31.6-25.94,45.57-40.9c15.98-17.11,29.58-36.04,42.12-55.8c9.13-14.38,16.58-29.62,23.37-45.11
		c6-13.68,10.94-27.93,15.07-42.3c3.77-13.09,5.82-26.68,8.63-40.05c0.78,0.27,1.36,0.52,1.85-0.64c3.22-7.67,2.27-15.51,1.11-23.37
		c0.02-1.7,0.04-3.4,0.06-5.1c0.45-0.19,1.26-0.33,1.3-0.59c2.21-13.75,2.22-27.53,0.49-41.33c-0.32-1.34,0.24-2.88-0.93-4.01
		c-1.29-3.6-1.27-7.3-0.88-11.03c1.65-6.2,1.47-12.62,0.05-18.62c-0.61-2.59,0.53-6.54-3.05-8.26c-2.3-5.5-2.54-11.43-3.71-17.17
		c-4.17-20.54-10.79-40.28-18.83-59.62c-7.76-18.66-17.15-36.37-27.93-53.47c-8.43-13.38-17.76-26.04-27.76-38.2
		c-11.95-14.53-25.49-27.55-39.74-39.87c-19.44-16.81-40.61-31.03-63.14-43.26c-19.42-10.54-39.89-18.58-60.89-25.36
		c-0.77-0.25-1.45-0.75-2.17-1.14c-0.02-2.93-3.34-1.01-4.32-2.98c1.71-1.44,3.75-0.69,5.55-1.03c8.3,1.65,16.4,3.94,24.43,6.66
		c7.45,2.53,15.14,4.37,22.37,7.52c14.86,6.47,29.7,12.89,43.92,20.86c16.86,9.45,32.92,19.99,48.18,31.71
		c12.98,9.97,24.92,21.19,36.49,32.85c10.32,10.4,19.88,21.42,28.69,32.98c10.7,14.04,20.23,28.91,29.04,44.31
		c10.43,18.25,18.66,37.45,25.84,57.02c6.18,16.81,10.6,34.28,13.94,51.98c2.16,11.47,3.79,22.96,4.82,34.56
		c0.55,6.2,2.93,12.22,1.83,18.59c-1.81,7.69-0.53,15.48-0.73,23.22c-0.09,3.56-1,7.27,0.73,10.75c0.72,7.29-1.61,14.3-2.01,21.51
		c-0.45,8.17-1.85,16.29-2.88,24.42c-0.05,0.4-0.53,0.74-0.81,1.11c-2.73,7.82-5.15,15.7-5.06,24.11
		c-3.7,14.65-7.97,29.08-13.46,43.21c-10.15,26.12-22.86,50.83-38.54,74.03c-9.02,13.34-18.68,26.19-29.42,38.19
		c-14.98,16.76-31.31,32.03-49.13,45.82c-15.98,12.36-32.68,23.46-50.4,33.14c-12.15,6.64-24.8,12.13-37.54,17.46
		c-13.82,5.78-27.92,10.54-42.48,14.25c-10.88,2.78-21.55,6.22-32.87,6.73c-0.84-0.03-1.62,0.1-2.14,0.87c0,0-0.14,0.02-0.14,0.02
		c-2.16,0.01-4.34-0.19-6.47,0.08c-2.8,0.35-6.09-1.38-8.28,1.77c-0.69,0.08-1.38,0.16-2.08,0.23c-5.69,0.09-11.49-0.91-16.92,1.76
		c-2.69,0.42-5.39,0.84-8.08,1.25c-1-0.35-2-0.7-3.01-1.05c-9.7,0.01-19.4,0.01-29.1,0.02c-3.65,0.02-7.31,0.03-10.96,0.05
		c-14.36-0.23-28.61-1.71-42.56-5.09c-10.58-2.56-21.5-3.45-31.87-7.01c-13.12-4.5-26.35-8.63-39.18-14
		c-14.24-5.96-28.13-12.59-41.66-19.96c-13.41-7.31-25.82-16.17-38.25-25c-13.09-9.29-24.83-20.19-36.51-31.13
		c-7.78-7.29-15.63-14.68-22.24-22.98c-10.9-13.68-21.91-27.28-31.26-42.21c-6.67-10.66-13.41-21.29-18.98-32.5
		c-6.69-13.44-12.82-27.19-17.68-41.5c-4.08-12.02-8.33-23.97-11.17-36.36c-0.86-3.75-1.59-7.54-2.38-11.31
		c1.1-2.56,2.29-5.12-1.13-6.94c-0.21-0.24-0.25-0.5-0.11-0.79c0.03-2.27,0.11-4.53,0.07-6.79
		C121,223.98,121.39,223.27,122.97,223.94z"/>
	<path class="st3" d="M798.23,139.6c-1.78-13.25-3.02-26.6-5.52-39.72c-2.1-11.05-4.93-21.99-8.2-32.82
		c-6.16-20.36-14.59-39.7-24.41-58.52c-7.94-15.21-17.42-29.45-27.71-43.05c-11.78-15.58-25.2-29.77-39.88-42.79
		c-8.74-7.75-17.72-15.13-27.19-21.94c-15.72-11.31-32.31-21.14-49.78-29.51c-16.91-8.1-34.46-14.49-52.49-19.48
		c-12.51-3.46-25.22-6.03-38.15-7.82c-17.82-2.47-35.69-4.63-53.62-3.6c-13.83,0.8-27.71,0.92-41.56,3.43
		c-14.99,2.71-30.03,5.14-44.47,9.82c-16.35,5.31-32.44,11.26-47.96,19.06c-14.48,7.28-28.32,15.37-41.78,24.25
		c-1.5,0.99-3.07,1.97-4.33,3.22c-5.9,5.83-13.09,6.48-20.93,6.21c-12.31-0.43-24.65-0.1-36.98-0.15c-1.07,0-2.56,0.79-3.17-0.5
		c-0.76-1.61,0.99-2.24,1.87-3.06c9.16-8.59,18.96-16.37,28.77-24.22c12.06-9.64,24.86-18.04,38.21-25.51
		c16.31-9.12,33.2-17.1,51.06-23.01c9.44-3.13,18.75-6.77,28.44-8.86c14.05-3.03,28.01-6.39,42.38-8.12
		c16.4-1.98,32.77-3.39,49.22-2.7c15.51,0.65,30.93,2.51,46.34,4.65c16.95,2.36,33.44,6.51,49.67,11.5
		c18.36,5.65,35.98,13.36,53.04,22.32c25.66,13.48,49.25,29.92,70.61,49.45c19.08,17.44,36.02,36.76,50.49,58.28
		c8.2,12.2,16.14,24.56,22.58,37.72c8.45,17.26,16.16,34.83,21.38,53.48c3.28,11.7,6.3,23.45,8.95,35.28
		c1.82,8.09,2.84,16.39,3.72,24.65c1.13,10.65,1.76,21.34,2.61,32.01C799.05,139.55,798.64,139.57,798.23,139.6z"/>
	<path class="st3" d="M456.58,481.67c-15.69-0.72-31.27-1.87-46.85-4.41c-20.62-3.37-40.76-8.25-60.28-15.44
		c-19.26-7.09-37.88-15.61-55.6-26.2c-13.73-8.2-26.98-17.02-39.36-27.05c-16.26-13.17-31.22-27.72-45.07-43.49
		c-10.29-11.71-19.27-24.29-27.93-37.15c-12.53-18.63-22.71-38.59-30.87-59.42c-7.01-17.91-12.64-36.4-16.27-55.34
		c-1.04-5.41-2.06-10.82-3.09-16.23c-0.47-2.49-0.56-5.16,3.82-4.88c6.8,0.43,13.65,0.13,20.48,0.07c2.35-0.02,3.43,0.06,3.82,3.32
		c1.54,12.78,2.76,25.76,6.15,38.1c3.88,14.12,7.63,28.37,13.3,42.02c4.21,10.12,8.29,20.28,13.33,30.02
		c12.39,23.97,27.38,46.11,45.26,66.42c22.89,25.98,49.05,47.95,78.79,65.48c14.48,8.53,29.76,15.6,45.48,21.86
		c18.1,7.21,36.67,12.41,55.58,16.4c12.79,2.7,25.88,4.26,39.05,4.29c0,0,0.32,0.19,0.32,0.19
		C456.62,480.71,456.6,481.19,456.58,481.67z"/>
	<path class="st3" d="M431.64,429.96c-15.58,1.51-31.65-15.35-31.92-32.88c-0.29-18.8,15.8-35.44,35.14-34.14
		c16.63,1.12,34.11,13.9,32.06,36.63C465.49,415.36,453.76,430.26,431.64,429.96z"/>
	<path class="st3" d="M626.39,429.98c-16.75,1.42-32.55-16.05-32.51-32.79c0.06-19.97,15.26-34.58,34.13-34.21
		c18.25,0.36,32.69,15.31,33.28,33.17C661.92,415.04,643.55,431.92,626.39,429.98z"/>
	<path class="st4" d="M579.75,109.97c0.41,2.02-1.21,0.99-1.77,1c-4.16,0.11-8.32,0.07-12.48,0.07c-142.82,0-285.65,0-428.47,0
		c0.36-0.94,1.23-0.93,2.02-1.07c2.16,0.05,4.32,0.16,6.49,0.16c140.91-0.01,281.82-0.04,422.72-0.06
		C572.09,110.07,575.92,110.01,579.75,109.97z"/>
	<path class="st5" d="M579.75,109.97c-3.83,0.03-7.66,0.1-11.49,0.1c-140.91,0.03-281.82,0.05-422.72,0.06
		c-2.16,0-4.32-0.1-6.49-0.16c1.41-1.33,3.16-0.79,4.77-0.79c144.92-0.07,289.83-0.12,434.75-0.16c0.5,0,0.99,0.08,1.49,0.13
		C580.01,109.45,579.91,109.72,579.75,109.97z"/>
	<path class="st2" d="M135.83,147.13c1.66-0.03,3.33-0.09,4.99-0.09c132.06,0,264.12-0.01,396.17,0.08c2.16,0,5.8-1.88,5.98,2.83
		c-0.7-0.05-1.39-0.09-2.08-0.14c-1.02-3.15-3.67-1.69-5.52-1.69c-81.78-0.08-163.56-0.09-245.34-0.08
		c-50.47,0.01-100.93,0.05-151.4,0.08C137.52,148.32,136.61,147.92,135.83,147.13z"/>
	<path class="st5" d="M747.05,12.31c-1.65,1.2-3.55,0.67-5.33,0.67c-131.32,0.03-262.64,0.03-393.96-0.05
		c-2.06,0-4.68,1.41-6.28-1.3c2.99,0.1,5.98,0.28,8.98,0.28c129.88,0.01,259.77,0.01,389.65,0.03
		C742.41,11.94,744.73,12.18,747.05,12.31z"/>
	<path class="st4" d="M138.64,148.11c50.47-0.03,100.93-0.07,151.4-0.08c81.78-0.01,163.56-0.01,245.34,0.08
		c1.85,0,4.5-1.47,5.52,1.69c-2.68-1.08-5.5-0.82-8.28-0.82c-129.24-0.02-258.47-0.03-387.71-0.09
		C142.82,148.88,140.57,149.61,138.64,148.11z"/>
	<path class="st5" d="M379.67,339.35c1.51,2.31,2.96,3.82,6.39,3.81c93.25-0.17,186.51-0.13,279.76-0.15c1.99,0,3.98-0.19,5.97-0.29
		c0.31,0.05,0.62,0.09,0.93,0.12c-1.14,2.27-3.23,1.24-4.87,1.24c-94.24,0.05-188.48,0.03-282.72,0.11
		C381.49,344.19,379.25,343.5,379.67,339.35z"/>
	<path class="st4" d="M540.91,187.28c-1.06,3.09-3.69,1.67-5.55,1.67c-69.58,0.08-139.16,0.07-208.74,0.07
		c-24.8,0-49.61,0.02-74.41,0.03c0.54-1.33,1.85-0.74,2.77-1.12c0.33,0.04,0.66,0.11,0.99,0.11c92.94,0,185.88,0.01,278.82-0.01
		c1.45,0,3.03,0.41,4.29-0.76C539.7,187.27,540.31,187.28,540.91,187.28z"/>
	<path class="st5" d="M671.98,304.75c-2.49,0.09-4.97,0.25-7.46,0.25c-79.72,0.01-159.44-0.03-239.16,0.11
		c-4.87,0.01-6.7-0.93-6.48-6.25c0.45-10.97,0.12-21.96,0.11-32.95c0,0,0.49-0.04,0.49-0.04s0.49,0.07,0.49,0.07
		c0.05,10.65,0.37,21.32,0.03,31.96c-0.15,4.77,1.08,6.15,5.97,6.14c80.09-0.16,160.19-0.12,240.28-0.08
		C668.17,303.96,670.25,303.2,671.98,304.75z"/>
	<path class="st4" d="M303.36,64.93c0.34-0.92,0.68-1.84,1.34-3.64c0.59,2.87-0.2,5.64,2.28,7.06c2.2,1.26,4.57,0.67,6.84,0.67
		c86.93,0.04,173.86,0.03,260.78,0.04c1.66,0,3.33,0.05,4.99,0.09c0.1,0,0.28,0.22,0.26,0.28c-0.1,0.27-0.26,0.53-0.39,0.78
		c-86.37-0.02-172.75-0.05-259.13-0.06c-5.16,0-10.31,0.07-15.47,0.11C303.38,68.77,304.01,66.67,303.36,64.93z"/>
	<path class="st5" d="M539.09,187.27c-1.27,1.17-2.84,0.76-4.29,0.76c-92.94,0.02-185.88,0.02-278.82,0.01
		c-0.33,0-0.66-0.07-0.99-0.11c1.38-1.35,3.14-0.89,4.75-0.89c92.12-0.02,184.25-0.01,276.37,0.01
		C537.1,187.05,538.1,187.19,539.09,187.27z"/>
	<path class="st5" d="M304.87,70.26c5.16-0.04,10.31-0.11,15.47-0.11c86.38,0.01,172.76,0.04,259.13,0.06
		c0.13,0.31,0.27,0.62,0.41,0.93c-90.26,0.01-180.52,0.02-270.79,0.02C307.65,71.17,306.06,71.58,304.87,70.26z"/>
	<path class="st4" d="M568.16-192.99c-1.8,0.34-3.84-0.41-5.55,1.03c0.98,1.97,4.3,0.05,4.32,2.98c-9.12-2.04-18.37-3.63-27.33-6.24
		c-8.75-2.55-17.74-3.12-26.62-4.52c-10.02-1.58-20.14-2.5-30.5-3.75c12.92-1.34,25.46-0.05,37.94,1.67
		c12.84,1.77,25.65,3.78,38.44,5.91C562.04-195.38,565.07-193.99,568.16-192.99z"/>
	<path class="st4" d="M122.97,223.94c-1.58-0.67-1.98,0.05-1.95,1.53c0.05,2.26-0.04,4.53-0.07,6.79
		c-3.42-2.69-2.11-6.93-2.56-10.19c-1.32-9.56-2.82-19.12-3.42-28.81c-0.46-7.43-0.91-14.85-1.07-22.29
		c-0.05-2.46-0.01-4.91,0.43-7.39C115.94,183.91,118.41,204.07,122.97,223.94z"/>
	<path class="st4" d="M245.19,214.96c3.03,2.95,4.45,7.3,9.24,8.84c2.26,0.73,4.36,1.21,6.62,1.21c26.74,0.03,53.48,0,80.22,0.04
		c1.92,0,4.01-0.7,5.73,0.83c-2.15,0.05-4.31,0.14-6.46,0.14c-28.52,0.04-57.03,0.06-85.55,0.09c-5.39-1.26-9.1-4.24-10.15-9.94
		C244.96,215.77,245.08,215.36,245.19,214.96z"/>
	<path class="st4" d="M225.22-12.9c2.36,5.08,6.97,3.97,11.12,3.98c14.74,0.04,29.49,0,44.23,0.04c1.57,0,3.78-0.7,4.43,1.26
		c1.89,5.7,4.7,11.29,3.19,17.63c-2.45-5.24-3.89-10.76-4.5-16.5c-1.11-2.31-3.22-1.21-4.83-1.22c-17.9-0.16-35.81-0.2-53.72-0.27
		C225.16-9.63,225.19-11.27,225.22-12.9z"/>
	<path class="st5" d="M254.99,226.12c28.52-0.03,57.03-0.05,85.55-0.09c2.15,0,4.31-0.09,6.46-0.14c0.36,0.36,0.71,0.71,1.07,1.07
		c-29.43,0.02-58.87,0.05-88.3,0.05C258.14,227.01,256.4,227.37,254.99,226.12z"/>
	<path class="st4" d="M303.07-44.92c-25.96,0.01-51.92,0.02-77.88,0.03c-0.24-0.17-0.48-0.34-0.72-0.51
		c0.26-0.13,0.53-0.27,0.79-0.4c25.82,0.01,51.64,0.02,77.47,0.03C302.93-45.53,303.04-45.24,303.07-44.92z"/>
	<path class="st5" d="M302.73-45.78c-25.82-0.01-51.65-0.02-77.47-0.03c1.12-1.48,2.74-0.93,4.15-0.94
		c23.07-0.03,46.14-0.03,69.21,0.01C300.02-46.72,301.68-47.4,302.73-45.78z"/>
	<path class="st5" d="M225.14-8c17.91,0.07,35.81,0.11,53.72,0.27c1.61,0.01,3.72-1.09,4.83,1.22c-17.89-0.09-35.78-0.15-53.67-0.32
		C228.38-6.84,226.31-5.77,225.14-8z"/>
	<path class="st4" d="M811.09,89.11c3.58,1.71,2.43,5.66,3.05,8.26c1.42,6,1.6,12.42-0.05,18.62c-0.27-0.42-0.77-0.84-0.78-1.26
		C813.24,106.13,812.07,97.63,811.09,89.11z"/>
	<path class="st4" d="M814.06,178.05c1.17,7.86,2.11,15.7-1.11,23.37c-0.49,1.16-1.07,0.91-1.85,0.64
		C813.43,194.22,811.93,185.91,814.06,178.05z"/>
	<path class="st4" d="M523.02,249.9c0.08-1.14-0.08-2.53,1.49-2.72c7.8-0.96,15.61-1.86,23.42-2.69c0.29-0.03,0.69,0.95,1.03,1.46
		C540.09,245.81,531.8,249.46,523.02,249.9z"/>
	<path class="st4" d="M815.91,131.03c1.73,13.8,1.72,27.58-0.49,41.33c-0.04,0.26-0.85,0.39-1.3,0.59c-0.92-2.76,1.23-5.16,0.9-7.85
		c1.25-1.6,0.84-3.49,0.85-5.27C815.92,150.23,815.9,140.63,815.91,131.03z"/>
	<path class="st4" d="M836.96,251.17c-0.09-8.41,2.33-16.29,5.06-24.11C841.99,235.45,839.41,243.3,836.96,251.17z"/>
	<path class="st4" d="M672.73,342.84c-0.31-0.03-0.62-0.07-0.93-0.12c0.05-12.58,0.1-25.15,0.15-37.73
		c0.96,0.38,0.97,1.22,0.97,2.05C672.85,318.98,672.79,330.91,672.73,342.84z"/>
	<path class="st4" d="M481.88,497.13c-7.31,1.79-14.74,0.63-22.1,0.75c-3.87,0.06-7.89,1.03-11.67-0.77
		C459.37,497.12,470.63,497.13,481.88,497.13z"/>
	<path class="st4" d="M847.72,180.02c-1.73-3.47-0.82-7.19-0.73-10.75c0.2-7.74-1.08-15.54,0.73-23.22
		c0.09,0.32,0.16,0.64,0.21,0.97c0,10.68,0,21.35,0,32.03C847.89,179.37,847.82,179.7,847.72,180.02z"/>
	<path class="st4" d="M131.07,114.97c-2.52,8.25-1.93,16.76-2.09,25.21c-0.31-0.04-0.52-0.21-0.65-0.49
		c-0.01-6.79-0.02-13.58-0.04-20.37C128.99,117.72,128.89,115.61,131.07,114.97z"/>
	<path class="st4" d="M507.03,495.06c-0.45,2.36-2.33,1.87-3.88,1.88c-4.4,0.03-8.81-0.01-13.21-0.03
		C495.61,496.05,501.23,494.73,507.03,495.06z"/>
	<path class="st4" d="M419.97,265.94l-0.49-0.07c0,0-0.49,0.04-0.49,0.04c-0.13-2.44,1.27-2.99,3.39-2.92
		c2.92,0.1,5.84,0.06,8.76,0.07C428.11,266.73,423.35,263.68,419.97,265.94z"/>
	<path class="st5" d="M128.29,119.31c0.01,6.79,0.02,13.58,0.04,20.37C126.25,132.89,126.36,126.1,128.29,119.31z"/>
	<path class="st4" d="M128.94,140.11c2.31,2.04,6.13,2.74,6.12,6.85C131.51,146.02,129.49,143.72,128.94,140.11z"/>
	<path class="st5" d="M245.19,214.96c-0.12,0.41-0.23,0.82-0.35,1.22c-1.49-6.09-1.54-12.19,0.03-18.28
		C244.98,203.59,245.09,209.27,245.19,214.96z"/>
	<path class="st4" d="M121.07,233.06c3.42,1.82,2.23,4.39,1.13,6.94C120.46,237.91,121.1,235.43,121.07,233.06z"/>
	<path class="st5" d="M749.05,17.14c-0.11-1.61-0.21-3.22-0.32-4.83C751.36,13.71,751.36,13.73,749.05,17.14z"/>
	<path class="st4" d="M540.99,524.88c0.52-0.77,1.3-0.89,2.14-0.87C542.7,525.01,541.91,525.11,540.99,524.88z"/>
	<path class="st5" d="M621.94,765.54c0.23-0.27,0.45-0.54,0.68-0.81C622.43,765.03,623.16,766.1,621.94,765.54z"/>
	<polygon class="st5" points="456.58,479.96 456.64,480.23 456.32,480.03 456.39,479.83 	"/>
	<path class="st5" d="M210.93,388.08c-0.33-0.29-0.67-0.58-1-0.87C210.58,387.13,210.92,387.42,210.93,388.08z"/>
	<path class="st2" d="M295.12,750.75c0.33-0.46,0.62-0.38,0.89,0.06c0,0-0.45,0.09-0.45,0.09L295.12,750.75z"/>
</g>
</svg>
